IKResults
version=1
nRows=14
nColumns=40
inDegrees=yes

Units are S.I. units (second, meters, Newtons, ...)
Angles are in degrees.

endheader
time	pelvis_tilt	pelvis_list	pelvis_rotation	pelvis_tx	pelvis_ty	pelvis_tz	hip_flexion_r	hip_adduction_r	hip_rotation_r	knee_angle_r	knee_angle_r_beta	ankle_angle_r	subtalar_angle_r	mtp_angle_r	hip_flexion_l	hip_adduction_l	hip_rotation_l	knee_angle_l	knee_angle_l_beta	ankle_angle_l	subtalar_angle_l	mtp_angle_l	lumbar_extension	lumbar_bending	lumbar_rotation	arm_flex_r	arm_add_r	arm_rot_r	elbow_flex_r	pro_sup_r	wrist_flex_r	wrist_dev_r	arm_flex_l	arm_add_l	arm_rot_l	elbow_flex_l	pro_sup_l	wrist_flex_l	wrist_dev_l
      2.55000000	     17.45841335	     -0.37737127	     -0.60795442	      0.36068720	      0.95022554	      0.99044835	     -8.63187235	     -0.91572189	     -3.83491551	    -41.25217069	     -0.71998620	     12.24980996	    -17.19768485	     11.79393863	    -15.80519018	     -2.19041302	     10.24023789	    -15.37765149	     -0.26839065	     10.43624155	      0.73079331	     -5.52208873	    -23.36967359	     -0.87114496	     -0.08193130	     -2.16128588	    -11.20095487	      3.03079392	     31.62817154	     89.95437384	      0.00000000	      0.00000000	      6.60002280	     11.55848306	      1.34281074	     21.85721222	     89.95437384	      0.00000000	      0.00000000
      2.56000000	     17.72615765	     -0.76606864	     -0.03729220	      0.36540447	      0.95090108	      0.98941117	     -8.40448508	     -0.41550297	     -4.64630249	    -40.04128842	     -0.69885232	     12.17233890	    -17.45483153	     12.81434327	    -16.59304034	     -1.73371572	      9.38752706	    -15.03221821	     -0.26236170	     10.64673333	      0.84274225	     -5.45028002	    -23.72626457	     -0.24455091	     -0.56679123	     -2.07138751	    -11.08199694	      2.69532091	     31.73237151	     89.95437384	      0.00000000	      0.00000000	      7.01468954	     11.67887493	      0.83709325	     22.37669445	     89.95437384	      0.00000000	      0.00000000
      2.57000000	     17.53504094	     -0.82411322	     -0.08052088	      0.36974810	      0.95070070	      0.98879217	     -7.26488306	     -0.52302136	     -5.22238817	    -39.47006090	     -0.68888252	     12.33936564	    -17.38554783	     12.78166330	    -16.69829438	     -1.73006157	      9.54449460	    -15.01023336	     -0.26197799	     10.70836279	      0.85655182	     -5.37738429	    -23.63285978	     -0.14758184	     -0.60358432	     -1.95646195	    -11.06860660	      2.67318842	     31.75375665	     89.95437384	      0.00000000	      0.00000000	      7.47396359	     11.65043316	      0.79557290	     22.81203681	     89.95437384	      0.00000000	      0.00000000
      2.58000000	     17.32910382	     -0.90714068	     -0.04301016	      0.37395010	      0.95047198	      0.98808559	     -6.14853949	     -0.54510837	     -5.69797747	    -38.86411146	     -0.67830671	     12.30861327	    -17.18146926	     12.74185490	    -16.76430704	     -1.68726044	      9.56832500	    -14.99621769	     -0.26173337	     10.79821066	      0.82179255	     -5.31688725	    -23.55248937	      0.00659394	     -0.72053411	     -1.82082030	    -11.05196301	      2.63030432	     31.75775779	     89.95437384	      0.00000000	      0.00000000	      7.95328129	     11.59813713	      0.72535504	     23.19571477	     89.95437384	      0.00000000	      0.00000000
      2.59000000	     17.44178417	     -1.27300086	      0.49378126	      0.37850144	      0.95078778	      0.98721665	     -5.69541380	     -0.11357611	     -6.56153642	    -37.69792611	     -0.65795293	     11.85248301	    -17.00271517	     13.34150723	    -17.25522450	     -1.18874241	      8.93512634	    -14.85520238	     -0.25927219	     11.13807988	      0.73238232	     -5.30776828	    -23.72848328	      0.59279810	     -1.16017160	     -1.64227337	    -10.88055611	      2.21864191	     31.55933971	     89.95437384	      0.00000000	      0.00000000	      8.46961328	     11.63365622	      0.32046826	     23.41134328	     89.95437384	      0.00000000	      0.00000000
      2.60000000	     17.49700597	     -1.49525448	      0.70527340	      0.38285077	      0.95087726	      0.98656550	     -5.10355864	      0.12359565	     -7.08241996	    -36.67962973	     -0.64018031	     11.60035560	    -16.78067572	     13.96954385	    -17.64897120	     -0.94361126	      8.70752351	    -14.79186631	     -0.25816677	     11.14788014	      0.88763949	     -5.28391546	    -23.91649969	      0.93480875	     -1.35200543	     -1.54949493	    -10.82320652	      1.99611493	     31.62769743	     89.95437384	      0.00000000	      0.00000000	      8.85651847	     11.64005434	      0.04737464	     23.91794021	     89.95437384	      0.00000000	      0.00000000
      2.61000000	     17.25634009	     -1.52953553	      0.66824751	      0.38710840	      0.95040312	      0.98610404	     -3.94946360	      0.05637289	     -7.48541751	    -36.13031240	     -0.63059291	     11.47709738	    -16.40219081	     13.83140185	    -17.66366625	     -0.94405716	      8.86130492	    -14.80933538	     -0.25847166	     11.24868352	      0.86731741	     -5.22333131	    -23.76380251	      1.00247822	     -1.39857109	     -1.45661320	    -10.81940517	      2.00522119	     31.62346036	     89.95437384	      0.00000000	      0.00000000	      9.31594277	     11.57573959	     -0.03139152	     24.23715392	     89.95437384	      0.00000000	      0.00000000
      2.62000000	     17.04336621	     -1.62964364	      0.68645984	      0.39143027	      0.94996935	      0.98570872	     -2.91188782	      0.08791956	     -7.93290042	    -35.42196803	     -0.61822997	     11.19791612	    -15.91272356	     13.72162276	    -17.74181890	     -0.85357579	      8.90464090	    -14.78119145	     -0.25798046	     11.44833011	      0.79672154	     -5.18613217	    -23.63003383	      1.15054711	     -1.45992884	     -1.34968602	    -10.79193221	      1.99345249	     31.52106047	     89.95437384	      0.00000000	      0.00000000	      9.75706123	     11.50557519	     -0.18177030	     24.43587880	     89.95437384	      0.00000000	      0.00000000
      2.63000000	     17.13603800	     -2.02099765	      1.02718852	      0.39584151	      0.95007851	      0.98520649	     -2.47893900	      0.53628739	     -8.52581873	    -34.17665800	     -0.59649521	     10.45477542	    -14.98194399	     13.69441914	    -18.18050530	     -0.35057901	      8.54619349	    -14.71712357	     -0.25686226	     11.75470287	      0.60059759	     -5.22357804	    -23.78985779	      1.70007379	     -1.65424567	     -1.18610305	    -10.66978260	      1.68759769	     31.30362048	     89.95437384	      0.00000000	      0.00000000	     10.33473556	     11.38143355	     -0.38785379	     24.42901356	     89.95437384	      0.00000000	      0.00000000
      2.64000000	     16.93004306	     -2.03303794	      1.05022499	      0.40024858	      0.94953376	      0.98482341	     -1.51619016	      0.47541543	     -8.91604448	    -33.46936220	     -0.58415057	     10.20646513	    -14.48663348	     13.51480951	    -18.25684218	     -0.33802418	      8.70449970	    -14.72554631	     -0.25700927	     11.88543822	      0.55776391	     -5.17795862	    -23.64573053	      1.76314890	     -1.71162054	     -1.17226703	    -10.66152538	      1.65488936	     31.30687932	     89.95437384	      0.00000000	      0.00000000	     10.70816410	     11.29579057	     -0.47027036	     24.72186002	     89.95437384	      0.00000000	      0.00000000
      2.65000000	     16.99502792	     -2.36685825	      1.27643769	      0.40471477	      0.94948873	      0.98452135	     -1.06080918	      0.81768846	     -9.52465135	    -32.29473608	     -0.56364948	      9.39466150	    -13.26047330	     13.31411034	    -18.69241793	      0.08252619	      8.51469881	    -14.59787069	     -0.25478091	     12.13459944	      0.33597395	     -5.22100961	    -23.76433689	      2.21305438	     -1.81840611	     -1.05237698	    -10.62293508	      1.59659803	     31.12748513	     89.95437384	      0.00000000	      0.00000000	     11.22761507	     11.21682187	     -0.82050881	     24.72581552	     89.95437384	      0.00000000	      0.00000000
      2.66000000	     16.79972137	     -2.37014607	      1.26226716	      0.40916050	      0.94890131	      0.98420030	     -0.20878376	      0.73405437	     -9.99000257	    -31.40434691	     -0.54810925	      9.10486282	    -12.67708953	     13.09446184	    -18.79174451	      0.07147584	      8.68549766	    -14.60051831	     -0.25482712	     12.26084328	      0.28577363	     -5.18922262	    -23.62183331	      2.25875586	     -1.86955834	     -1.02275864	    -10.62215269	      1.57695481	     31.13487368	     89.95437384	      0.00000000	      0.00000000	     11.55880190	     11.11271539	     -0.91979159	     24.98694605	     89.95437384	      0.00000000	      0.00000000
      2.67000000	     17.17513917	     -2.77043346	      1.71165475	      0.41388051	      0.94932214	      0.98364418	     -0.39194355	      1.12581249	    -10.94593528	    -29.77304893	     -0.51963773	      8.39999762	    -11.00944289	     12.42298912	    -19.58061606	      0.65114919	      8.50274207	    -14.42305406	     -0.25172978	     12.31658326	     -0.00985746	     -5.35566415	    -24.06291309	      2.87320882	     -2.07064096	     -1.01672174	    -10.60776556	      1.40090729	     31.12030275	     89.95437384	      0.00000000	      0.00000000	     12.01154864	     10.92115800	     -1.00990840	     25.07906902	     89.95437384	      0.00000000	      0.00000000
      2.68000000	     17.11210931	     -2.90891265	      1.79418181	      0.41871973	      0.94889625	      0.98334704	      0.10689233	      1.17054533	    -11.66081550	    -28.58309962	     -0.49886920	      8.03080834	     -9.77861792	     11.79489748	    -19.91038798	      0.81140199	      8.56912500	    -14.30117884	     -0.24960266	     12.50956411	     -0.15219670	     -5.44400453	    -23.99108437	      3.09086176	     -2.17201605	     -0.96111253	    -10.61003623	      1.44857072	     30.93021992	     89.95437384	      0.00000000	      0.00000000	     12.29836032	     10.80123465	     -1.13710839	     25.21030612	     89.95437384	      0.00000000	      0.00000000
